<!-- icon666.com - MILLIONS vector ICONS FREE --><svg viewBox="0 -16 512 512" xmlns="http://www.w3.org/2000/svg"><path d="m512 435c0 24.898438-20.097656 45-45 45h-77.199219l-43.800781-17.699219-5.097656 17.699219h-259.902344l-3.601562-19.800781-37.796876 19.199219c-22.5-2.398438-39.601562-21.300782-39.601562-44.398438 0-12 3.601562-23.402344 10.800781-33.300781l19.199219-26.699219h45v-255h92.199219c2.402343 14.699219 8.402343 27.898438 16.800781 39l20.699219 27.597656 9 12.003906 42.300781 56.398438 38.699219-51.300781 5.101562-6.898438 28.199219-37.800781c8.699219-11.101562 14.398438-24.601562 16.800781-39h92.199219v255h45l19.199219 26.699219c7.199219 9.898437 10.800781 21.300781 10.800781 33.300781zm0 0" fill="#6aa9ff"></path><path d="m512 435c0 24.898438-20.097656 45-45 45h-77.199219l-43.800781-17.699219-5.097656 17.699219h-84.902344v-225l38.699219-51.300781 5.101562-6.898438 28.199219-37.800781c8.699219-11.101562 14.398438-24.601562 16.800781-39h92.199219v255h45l19.199219 26.699219c7.199219 9.898437 10.800781 21.300781 10.800781 33.300781zm0 0" fill="#4895ff"></path><path d="m437 276-136 135 88.800781 69h-48.898437l-84.902344-66-60.601562-47.101562-114.398438 113.101562-41.398438-.601562 131.796876-131.097657-96.398438-74.402343v-18.898438l9.300781-11.699219 23.101563 18 86.496094-85.5 21.300781 21.300781-1.5 1.5-81.300781 81.296876 123.601562 96 21.300781 16.5 98.699219-98.398438-94.199219-73.199219-.300781-.300781 13.199219-16.800781 5.101562-6.898438 97.5 75.597657 29.199219-27.898438 10.5 10.5zm0 0" fill="#7ed8f6"></path><path d="m90 60v330h-45c-24.902344 0-45 20.097656-45 45v-315c0-33 27-60 60-60zm0 0" fill="#e0f4ff"></path><path d="m437 276-136 135 88.800781 69h-48.898437l-84.902344-66v-38.101562l21.300781 16.5 98.699219-98.398438-94.5-73.5 18.300781-23.699219 97.5 75.597657 29.199219-27.898438 10.5 10.5zm0 0" fill="#64bce2"></path><path d="m256 0c-57.898438 0-105 47.101562-105 105 0 5.097656.300781 10.199219.902344 15 2.699218 17.398438 9.296875 33.898438 20.097656 48l84 111.898438 84-111.898438c10.800781-14.101562 17.402344-30.601562 20.097656-48 .601563-4.800781.902344-9.902344.902344-15 0-57.898438-47.101562-105-105-105zm42.300781 120c-6 17.398438-22.800781 30-42.300781 30s-36.300781-12.601562-42.300781-30c-1.796875-4.800781-2.699219-9.601562-2.699219-15 0-24.902344 20.097656-45 45-45s45 20.097656 45 45c0 5.398438-.902344 10.199219-2.699219 15zm0 0" fill="#ff641a" style="fill: rgb(101, 78, 67);"></path><path d="m422 60v330h45c24.902344 0 45 20.097656 45 45v-315c0-33-27-60-60-60zm0 0" fill="#bbdcff"></path><path d="m361 105c0 5.097656-.300781 10.199219-.902344 15-2.699218 17.398438-9.296875 33.898438-20.097656 48l-84 111.898438v-129.898438c19.5 0 36.300781-12.601562 42.300781-30 1.796875-4.800781 2.699219-9.601562 2.699219-15 0-24.902344-20.097656-45-45-45v-60c57.898438 0 105 47.101562 105 105zm0 0" fill="#f03800" style="fill: rgb(139, 110, 101);"></path></svg>