<?xml version="1.0" standalone="no"?>
<!DOCTYPE svg PUBLIC "-//W3C//DTD SVG 20010904//EN"
 "http://www.w3.org/TR/2001/REC-SVG-20010904/DTD/svg10.dtd">
<svg version="1.0" xmlns="http://www.w3.org/2000/svg"
 width="840.000000pt" height="879.000000pt" viewBox="0 0 840.000000 879.000000"
 preserveAspectRatio="xMidYMid meet">

<g transform="translate(0.000000,879.000000) scale(0.100000,-0.100000)"
fill="#000000" stroke="none">
<path d="M1425 8380 c-73 -12 -130 -40 -259 -126 -417 -277 -708 -644 -851
-1069 -81 -242 -111 -459 -102 -744 6 -229 27 -341 103 -564 261 -760 635
-1459 1147 -2142 436 -581 1007 -1179 1617 -1690 574 -480 1228 -931 1865
-1283 293 -162 555 -255 886 -316 737 -136 1410 59 1928 559 171 164 355 409
401 533 61 162 49 314 -37 486 -60 121 -86 149 -222 238 -69 45 -454 300 -855
566 -402 267 -748 493 -771 503 -152 67 -301 63 -451 -12 -53 -26 -101 -72
-334 -315 -276 -287 -327 -331 -445 -383 -62 -27 -171 -51 -233 -51 -84 0
-170 29 -345 113 -216 104 -350 181 -547 312 -233 155 -403 296 -625 519 -252
252 -404 440 -580 721 -88 139 -225 410 -262 518 -26 75 -28 94 -28 222 0 133
2 145 34 238 82 237 280 486 576 723 86 68 105 89 134 146 53 105 54 229 1
353 -18 41 -102 171 -691 1060 -189 286 -373 563 -407 615 -70 106 -123 152
-237 206 -126 60 -279 84 -410 64z"/>
</g>
</svg>
