<!-- icon666.com - MILLIONS vector ICONS FREE --><svg viewBox="0 0 64 64" xmlns="http://www.w3.org/2000/svg"><g id="cart"><path d="m55.76 22.08a4.33 4.33 0 0 0 -3.39-1.62h-33.3a2.45 2.45 0 0 0 -2.41 2.88l3.65 20.28a4.34 4.34 0 0 0 4.28 3.58h23.82a4.37 4.37 0 0 0 4.25-3.42l4-18a4.33 4.33 0 0 0 -.9-3.7z" fill="#73dcff"></path><path d="m25.23 46.62a4.92 4.92 0 0 0 .15.58h-.79a4.34 4.34 0 0 1 -4.28-3.58l-3.65-20.28a2.45 2.45 0 0 1 2.41-2.88h33.31a4.36 4.36 0 0 1 4.13 3h-32.51a2.45 2.45 0 0 0 -2.41 2.88z" fill="#fff" style="fill: rgb(42, 117, 187);"></path><g fill="#3e618b"><path d="m29.72 52a3 3 0 1 1 -3-3 3 3 0 0 1 3 3z" fill="#3e618b" style="fill: rgb(91, 124, 164);"></path><path d="m49.42 52a3 3 0 1 1 -3-3 3 3 0 0 1 3 3z" fill="#3e618b" style="fill: rgb(91, 124, 164);"></path><path d="m55.76 22.08a4.33 4.33 0 0 0 -3.39-1.62h-33.31l-.88-4.46a3.51 3.51 0 0 0 -3.43-2.82h-6a1.5 1.5 0 1 0 0 3h6a.5.5 0 0 1 .49.4l2.36 12 2.71 15.07a4.34 4.34 0 0 0 4.28 3.58h23.82a4.37 4.37 0 0 0 4.25-3.42l4-18a4.33 4.33 0 0 0 -.9-3.73zm-2.07 3-4 18a1.34 1.34 0 0 1 -1.32 1.06h-23.78a1.35 1.35 0 0 1 -1.33-1.11l-2.48-13.73a1.49 1.49 0 0 0 0-.22l-.23-1.08-.82-4.55h32.65a1.35 1.35 0 0 1 1.32 1.64z" fill="#3e618b" style="fill: rgb(91, 124, 164);"></path></g></g></svg>