<?xml version="1.0" standalone="no"?>
<!DOCTYPE svg PUBLIC "-//W3C//DTD SVG 20010904//EN"
 "http://www.w3.org/TR/2001/REC-SVG-20010904/DTD/svg10.dtd">
<svg version="1.0" xmlns="http://www.w3.org/2000/svg"
 width="247.000000pt" height="204.000000pt" viewBox="0 0 247.000000 204.000000"
 preserveAspectRatio="xMidYMid meet">

<g transform="translate(0.000000,204.000000) scale(0.100000,-0.100000)"
fill="#000000" stroke="none">
<path d="M990 2030 c-151 -27 -262 -107 -317 -228 -19 -41 -27 -77 -31 -146
-3 -63 -11 -103 -24 -130 -60 -119 -20 -267 126 -471 31 -44 59 -90 62 -104
15 -78 27 -102 61 -130 58 -48 123 -66 233 -66 81 0 103 4 151 26 71 33 108
80 116 147 5 42 17 65 76 143 100 134 139 221 145 320 4 69 2 85 -21 131 -19
40 -27 74 -30 139 -6 111 -39 190 -109 255 -103 96 -279 142 -438 114z"/>
<path d="M2107 879 c-91 -22 -161 -81 -199 -167 -27 -60 -22 -169 10 -230 l22
-43 -111 -155 -111 -155 7 -47 c11 -81 10 -80 63 -71 26 4 53 8 60 8 11 1 12
12 7 51 l-7 49 52 7 51 7 -7 53 c-7 58 -6 58 66 66 14 2 26 10 27 18 1 8 4 31
8 51 l5 37 43 -15 c81 -29 187 -4 265 62 79 67 108 208 63 311 -52 119 -194
193 -314 163z m123 -179 c34 -18 44 -48 25 -76 -18 -28 -51 -31 -77 -7 -25 22
-23 59 4 77 27 19 24 19 48 6z"/>
<path d="M1395 528 c-59 -139 -111 -261 -117 -270 -8 -17 1 -18 120 -18 l128
0 78 110 77 110 -9 67 c-5 38 -7 91 -5 120 l5 52 -81 40 c-44 23 -83 41 -85
41 -2 0 -52 -114 -111 -252z"/>
<path d="M605 734 c-55 -33 -230 -107 -415 -173 -127 -46 -157 -61 -166 -81
-7 -14 -14 -73 -16 -132 l-4 -108 433 0 c238 0 433 2 433 4 0 5 -200 466 -213
492 l-12 23 -40 -25z"/>
<path d="M942 658 c-16 -16 -16 -140 0 -156 7 -7 25 -12 40 -12 15 0 28 -3 28
-6 0 -6 -47 -197 -56 -226 -5 -16 5 -18 116 -18 l120 0 -6 27 c-11 50 -45 188
-50 205 -4 13 3 17 28 20 42 4 60 37 55 100 -6 75 -12 78 -146 78 -78 0 -121
-4 -129 -12z"/>
</g>
</svg>
