<!-- icon666.com - MILLIONS vector ICONS FREE --><svg id="Layer_1" enable-background="new 0 0 512 512" viewBox="0 0 512 512" xmlns="http://www.w3.org/2000/svg"><g id="XMLID_204_"><path id="XMLID_388_" d="m256 488.727c-2.841 0-5.682-.523-8.386-1.557-10.103-3.909-247.614-98.056-247.614-312.625 0-40.432 15.739-78.432 44.318-106.977 28.557-28.557 66.545-44.295 106.955-44.295 24.239 0 48.386 5.92 69.83 17.102 12.795 6.693 24.568 15.216 34.92 25.182 10.352-9.977 22.125-18.477 34.864-25.125 21.455-11.205 45.602-17.136 69.818-17.159 40.409 0 78.386 15.727 106.977 44.295 28.579 28.58 44.318 66.568 44.318 106.977 0 214.568-237.511 308.716-247.614 312.625-2.704 1.035-5.545 1.557-8.386 1.557zm-104.727-418.909c-27.977 0-54.273 10.898-74.057 30.67-19.784 19.761-30.67 46.057-30.67 74.057 0 162.159 169.364 247.659 209.432 265.602 40.011-18.011 209.477-103.886 209.477-265.602 0-27.977-10.898-54.273-30.67-74.057-19.795-19.773-46.102-30.67-74.057-30.67-16.739.023-33.455 4.125-48.307 11.875-14.818 7.739-27.739 19.102-37.341 32.852-4.352 6.239-11.477 9.955-19.08 9.955-.011 0-.011 0-.023 0-7.614-.011-14.739-3.739-19.08-9.989-9.545-13.716-22.455-25.091-37.352-32.875-14.795-7.727-31.5-11.818-48.272-11.818z" fill="#191919" style="fill: rgb(129, 208, 228);"></path></g></svg>