<?xml version="1.0" standalone="no"?>
<!DOCTYPE svg PUBLIC "-//W3C//DTD SVG 20010904//EN"
 "http://www.w3.org/TR/2001/REC-SVG-20010904/DTD/svg10.dtd">
<svg version="1.0" xmlns="http://www.w3.org/2000/svg"
 width="920.000000pt" height="512.000000pt" viewBox="0 0 920.000000 512.000000"
 preserveAspectRatio="xMidYMid meet">

<g transform="translate(0.000000,512.000000) scale(0.100000,-0.100000)"
fill="#000000" stroke="none">
<path d="M2760 5107 c-35 -18 -65 -76 -56 -111 15 -62 59 -91 760 -507 217
-128 236 -160 202 -341 -46 -247 -151 -446 -322 -615 -155 -152 -216 -167
-349 -82 -38 24 -249 151 -470 281 l-400 237 -33 -37 c-38 -43 -57 -99 -48
-137 4 -14 24 -45 45 -68 21 -23 44 -53 51 -66 15 -29 391 -542 529 -721 52
-69 118 -147 145 -173 65 -63 184 -122 273 -135 37 -6 228 -16 423 -22 535
-16 619 -28 747 -107 44 -28 203 -182 582 -565 l521 -526 -57 -27 c-78 -36
-185 -71 -275 -91 -97 -21 -300 -22 -393 -1 -295 66 -557 243 -707 477 -99
154 -151 318 -183 583 l-6 47 -136 0 -136 0 6 -103 c34 -585 425 -1084 983
-1256 140 -43 228 -55 394 -55 223 1 388 42 594 147 571 291 886 982 731 1603
-61 245 -188 472 -370 663 -212 221 -449 359 -701 406 -85 16 -294 18 -309 3
-9 -8 23 -122 48 -173 39 -81 82 -107 202 -125 326 -49 611 -276 771 -615 98
-207 123 -433 74 -683 l-13 -64 -60 59 c-95 93 -817 849 -870 911 -127 150
-255 381 -321 582 -38 118 -92 360 -130 587 -30 175 -55 262 -102 353 -89 175
-235 290 -430 340 -101 26 -228 43 -639 85 -192 19 -383 40 -423 45 -94 13
-112 12 -142 -3z"/>
<path d="M4669 4801 c-65 -7 -99 -31 -99 -70 0 -14 27 -127 61 -251 33 -124
71 -265 84 -314 14 -49 26 -90 27 -91 2 -1 82 -10 178 -19 203 -19 347 -49
480 -100 500 -194 888 -665 1000 -1217 23 -112 42 -328 35 -398 -2 -25 -7 -80
-10 -121 -4 -41 -16 -118 -27 -170 -133 -620 -616 -1116 -1232 -1265 -615
-150 -1296 137 -1662 700 -154 238 -240 495 -263 788 -6 77 -13 113 -24 124
-9 9 -76 31 -149 49 -161 41 -272 93 -357 169 -88 78 -120 83 -165 22 -16 -22
-20 -47 -24 -161 -2 -74 -1 -165 3 -202 6 -63 11 -72 49 -110 48 -49 78 -58
226 -74 137 -14 193 -33 227 -75 59 -74 78 -171 47 -243 -21 -52 -63 -92 -191
-183 -118 -84 -163 -128 -163 -160 0 -22 90 -198 150 -293 23 -36 56 -77 73
-92 48 -40 111 -31 267 38 148 67 175 73 230 57 53 -16 132 -87 159 -142 35
-73 29 -115 -43 -272 -35 -77 -70 -160 -77 -183 -22 -75 -7 -92 197 -214 178
-108 212 -120 254 -98 10 6 63 76 117 157 120 179 144 198 248 198 60 0 81 -5
130 -30 89 -45 104 -81 115 -274 14 -233 25 -256 127 -271 78 -12 361 -6 395
8 15 6 32 21 38 33 7 11 18 94 26 182 17 199 32 254 79 296 67 58 217 81 282
41 18 -10 45 -41 60 -67 51 -88 155 -233 185 -258 16 -14 38 -25 49 -25 41 0
341 174 393 229 40 41 34 74 -44 241 -78 169 -90 221 -67 282 39 102 156 187
237 174 22 -3 94 -34 160 -69 105 -54 128 -62 173 -62 98 1 125 28 238 235 77
142 86 191 43 239 -16 17 -87 73 -158 124 -71 51 -138 104 -149 119 -25 34
-26 101 -2 196 14 57 26 83 54 112 40 43 37 42 260 60 74 6 149 17 167 25 55
23 61 48 66 272 5 220 1 248 -47 279 -27 17 -209 43 -315 44 -82 0 -118 24
-157 101 -18 35 -38 91 -44 125 -11 56 -11 64 10 107 19 39 44 62 159 146 75
54 148 110 160 124 47 50 36 84 -99 324 -77 136 -117 178 -160 169 -15 -3 -89
-35 -165 -71 -167 -80 -206 -91 -264 -75 -50 13 -127 85 -159 148 -36 70 -29
108 50 278 85 184 92 217 55 261 -15 18 -99 76 -188 129 -181 109 -216 118
-263 74 -15 -14 -70 -90 -123 -169 -84 -126 -101 -146 -139 -163 -48 -21 -88
-19 -178 9 -110 35 -144 87 -145 222 0 216 -50 324 -157 342 -55 9 -231 9
-314 0z"/>
</g>
</svg>
