<?xml version="1.0" standalone="no"?>
<!DOCTYPE svg PUBLIC "-//W3C//DTD SVG 20010904//EN"
 "http://www.w3.org/TR/2001/REC-SVG-20010904/DTD/svg10.dtd">
<svg version="1.0" xmlns="http://www.w3.org/2000/svg"
 width="219.000000pt" height="230.000000pt" viewBox="0 0 219.000000 230.000000"
 preserveAspectRatio="xMidYMid meet">

<g transform="translate(0.000000,230.000000) scale(0.100000,-0.100000)"
fill="#000000" stroke="none">
<path d="M975 2245 c6 -48 5 -56 -11 -61 -131 -46 -228 -123 -276 -222 l-33
-67 0 -165 0 -165 -29 -24 c-26 -23 -28 -28 -24 -87 5 -77 57 -187 152 -318
131 -181 214 -243 340 -253 118 -10 224 41 312 151 72 89 222 344 233 397 12
55 3 89 -28 111 -20 14 -21 23 -19 174 2 177 -9 225 -73 312 -90 122 -373 271
-517 272 l-33 0 6 -55z m213 -536 c82 -22 149 -33 225 -36 70 -4 107 -9 107
-17 -1 -6 -7 -38 -15 -71 -21 -84 -21 -84 33 -87 43 -3 47 -5 50 -30 4 -34
-23 -88 -129 -259 -131 -212 -206 -272 -339 -272 -129 -1 -195 49 -331 250
-102 151 -139 223 -139 269 0 37 16 53 62 60 l34 6 -8 66 c-13 125 -13 129 30
143 100 33 239 26 420 -22z"/>
<path d="M765 854 c-39 -31 -112 -56 -280 -99 -93 -23 -195 -52 -225 -64 -70
-27 -142 -80 -180 -133 -58 -80 -88 -236 -57 -298 7 -14 28 -33 47 -42 32 -17
84 -18 643 -18 334 0 607 1 607 3 0 1 -6 22 -14 47 -24 81 -28 160 -12 237 23
110 60 178 146 264 l76 76 -39 22 c-21 13 -39 21 -40 19 -55 -110 -104 -164
-185 -201 -70 -33 -197 -31 -272 4 -66 31 -139 100 -164 158 -21 46 -23 47
-51 25z"/>
<path d="M1717 780 c-114 -20 -226 -106 -283 -217 -27 -54 -29 -66 -29 -168 0
-101 2 -115 29 -170 147 -298 567 -295 710 5 28 59 31 74 31 165 0 88 -3 107
-27 157 -55 117 -167 204 -293 227 -65 12 -69 12 -138 1z m133 -245 l0 -75 68
0 c37 0 73 -4 80 -9 9 -5 12 -25 10 -62 l-3 -54 -77 -3 -78 -3 0 -74 c0 -70
-1 -75 -24 -81 -13 -3 -38 -4 -57 -2 l-34 3 -3 77 -3 77 -77 3 -77 3 -3 54
c-2 37 1 57 10 62 7 5 43 9 81 9 l67 0 0 75 0 75 60 0 60 0 0 -75z"/>
</g>
</svg>
